<svg width="170" height="171" xmlns="http://www.w3.org/2000/svg" class="icon">
 <g>
  <title>background</title>
  <rect x="-1" y="-1" width="172" height="173" id="canvas_background" fill="none"/>
 </g>

 <g>
  <title>Layer 1</title>
  <path d="m170.200516,85.6l0,55.1c0,11 -9,22.1 -17.9,26.6c-5,2.5 -10.3,3.2 -15.9,3.2c-34.9,-0.1 -69.9,-0.1 -104.8,-0.1c-17.3,0 -31.7,-15.8 -31.6,-31.6c0.2,-36 0.1,-72 0.1,-108.1c0,-11.7 8.3,-22.8 18.5,-27.6c4.7,-2.2 9.6,-3.1 14.8,-3.1c35.3,0.1 70.6,0.1 105.9,0.1c12.1,0 23,8.2 28,18.4c2.3,4.7 3.1,9.6 3.1,14.8c-0.3,17.5 -0.2,34.9 -0.2,52.3zm-62.7,-19c0.2,0 0.8,0.1 1.3,0.1c0.5,0.1 1,0.1 1.4,0.4c8.5,4.5 14.9,11.3 16.9,20.7c2.4,11.5 0.1,22.3 -7.8,31.5c-12.7,14.8 -36.2,18.4 -53.4,9.4c-18.7,-9.7 -30,-34.5 -21.8,-55.9c4.2,-11 10.7,-19.8 21.4,-25.2c2.8,-1.4 5.8,-2.7 8.4,-4.5c3.5,-2.4 4.1,-6.3 2,-9.8c-1.8,-3.1 -6,-4.5 -9.3,-3.2c-19.1,7.5 -31.7,20.8 -38.1,40.5c-4.7,14.6 -3,28.5 2.9,42.2c4.2,9.6 10.6,17.5 19.1,24c7,5.3 14.6,8.9 22.9,10.8c13.3,3 26.3,1.2 38.8,-4.4c22.2,-9.9 37.2,-35.5 29.2,-61.3c-4.3,-13.8 -13.4,-23.2 -26.4,-28.9c-4.2,-1.8 -8.8,-2.7 -13.6,-4c-0.4,-3.1 -1.1,-6.5 -1.3,-9.9c-0.2,-4.3 4,-6.9 7.9,-5.1c2,0.9 3.9,2.2 5.8,3.3c5.3,3.1 10.2,1.9 12.2,-3.2c1.1,-2.9 -0.2,-7.4 -3.5,-9.4c-3.6,-2.2 -7.6,-3.8 -11.5,-5.5c-9,-4 -20.7,2.5 -25.3,10.6c-3.1,5.4 -2.3,11.3 -0.8,17c0.5,2.1 2,4.4 -1.1,5.8c-1.5,0.7 -3,1.3 -4.5,2c-13.5,5.8 -21.6,23.6 -17.7,38.2c3.4,12.6 18.5,23.2 31.6,18.7c8.3,-2.8 19,-12.8 17.8,-23.5c-0.6,-7 -2.2,-14.1 -3.5,-21.4z" fill="#E00000" id="svg_1"/>
  <path d="m107.500516,66.6c1.3,7.4 2.9,14.4 3.7,21.6c1.2,10.7 -9.5,20.7 -17.8,23.5c-13.1,4.5 -28.2,-6.2 -31.6,-18.7c-3.9,-14.6 4.2,-32.4 17.7,-38.2c1.5,-0.7 3,-1.3 4.5,-2c3.1,-1.4 1.6,-3.7 1.1,-5.8c-1.4,-5.8 -2.2,-11.6 0.8,-17c4.5,-8.1 16.2,-14.5 25.3,-10.6c3.9,1.7 7.9,3.3 11.5,5.5c3.3,2 4.6,6.5 3.5,9.4c-1.9,5 -6.9,6.3 -12.2,3.2c-1.9,-1.1 -3.8,-2.4 -5.8,-3.3c-3.9,-1.8 -8.1,0.8 -7.9,5.1c0.1,3.4 0.8,6.8 1.3,9.9c4.8,1.4 9.4,2.2 13.6,4c12.9,5.7 22.1,15 26.4,28.9c8,25.8 -7,51.5 -29.2,61.3c-12.5,5.6 -25.5,7.4 -38.8,4.4c-8.3,-1.9 -15.9,-5.5 -22.9,-10.8c-8.5,-6.5 -14.9,-14.3 -19.1,-24c-6,-13.6 -7.6,-27.5 -2.9,-42.2c6.3,-19.7 18.9,-33.1 38.1,-40.5c3.4,-1.3 7.5,0.1 9.3,3.2c2.1,3.5 1.4,7.4 -2,9.8c-2.6,1.8 -5.6,3 -8.4,4.5c-10.6,5.4 -17.2,14.2 -21.4,25.2c-8.2,21.4 3.1,46.2 21.8,55.9c17.2,9 40.7,5.4 53.4,-9.4c7.9,-9.2 10.2,-20.1 7.8,-31.5c-2,-9.4 -8.4,-16.1 -16.9,-20.7c-0.4,-0.2 -0.9,-0.3 -1.4,-0.4c-0.7,-0.3 -1.3,-0.3 -1.5,-0.3zm-16.3,0c-12.6,2.9 -18.3,15.7 -12.8,26c1.9,3.6 6.6,5.6 10,4.6c4.7,-1.4 8,-4.8 7.3,-9.2c-1.1,-7.2 -3,-14.3 -4.5,-21.4z" fill="#FFFFFF" id="svg_4"/>
  <path d="m91.200516,66.6c1.5,7.1 3.4,14.2 4.5,21.4c0.7,4.4 -2.6,7.8 -7.3,9.2c-3.4,1 -8.1,-1 -10,-4.6c-5.5,-10.4 0.1,-23.2 12.8,-26z" fill="#E00000" id="svg_5"/>
 </g>
</svg>